<?xml version="1.0" encoding="UTF-8" standalone="no"?>
<!-- Generator: Adobe Illustrator 17.1.0, SVG Export Plug-In . SVG Version: 6.00 Build 0)  -->

<svg
   xmlns:dc="http://purl.org/dc/elements/1.1/"
   xmlns:cc="http://creativecommons.org/ns#"
   xmlns:rdf="http://www.w3.org/1999/02/22-rdf-syntax-ns#"
   xmlns:svg="http://www.w3.org/2000/svg"
   xmlns="http://www.w3.org/2000/svg"
   xmlns:sodipodi="http://sodipodi.sourceforge.net/DTD/sodipodi-0.dtd"
   xmlns:inkscape="http://www.inkscape.org/namespaces/inkscape"
   version="1.1"
   id="Capa_1"
   x="0px"
   y="0px"
   viewBox="0 0 476.766 476.766"
   style="enable-background:new 0 0 476.766 476.766;"
   xml:space="preserve"
   sodipodi:docname="oven-like.svg"
   inkscape:export-filename="/home/max/downloads/oven-mitt.svg.2018_03_06_16_56_41.0.svg.png"
   inkscape:export-xdpi="304.29999"
   inkscape:export-ydpi="304.29999"
   inkscape:version="0.92.2 (30a58d1, 2017-08-07)"><metadata
     id="metadata3813"><rdf:RDF><cc:Work
         rdf:about=""><dc:format>image/svg+xml</dc:format><dc:type
           rdf:resource="http://purl.org/dc/dcmitype/StillImage" /><dc:title /></cc:Work></rdf:RDF></metadata><defs
     id="defs3811" /><sodipodi:namedview
     pagecolor="#ffffff"
     bordercolor="#666666"
     borderopacity="1"
     objecttolerance="10"
     gridtolerance="10"
     guidetolerance="10"
     inkscape:pageopacity="0"
     inkscape:pageshadow="2"
     inkscape:window-width="1920"
     inkscape:window-height="1028"
     id="namedview3809"
     showgrid="false"
     inkscape:zoom="2"
     inkscape:cx="137.68357"
     inkscape:cy="149.44385"
     inkscape:window-x="0"
     inkscape:window-y="24"
     inkscape:window-maximized="1"
     inkscape:current-layer="layer1" /><g
     inkscape:groupmode="layer"
     id="layer2"
     inkscape:label="bg"><path
       style="fill:#2ecc71;fill-opacity:1;stroke:none"
       d="m 70.705915,416.93083 c -3.8621,-1.75452 -10.49142,-8.18062 -10.49142,-10.16982 0,-0.5963 -10.26019,-0.9652 -26.84501,-0.9652 -24.7370185,0 -26.9749685,-0.1436 -28.4999985,-1.82874 -1.45291,-1.60544 -1.65499,-5.08544 -1.65499,-28.5 0,-25.33793 0.1,-26.77124 2,-28.67126 1.89543,-1.89542 3.33334,-2 27.4999985,-2 h 25.5 l 0.022,-82.75 c 0.0245,-92.39861 -0.39565,-86.78896 7.04276,-94.02533 4.87814,-4.74565 11.03982,-6.22467 25.93229,-6.22467 h 12.633985 l 44.76609,-44.9857 c 41.73759,-41.942351 45.2615,-45.230551 52.08905,-48.604911 31.04646,-15.34399 66.96757,5.41595 70.12476,40.527301 0.70275,7.81541 -1.29863,17.47537 -5.3613,25.87706 -1.77124,3.66295 -6.30784,9.42238 -12.74961,16.18625 l -10,10.5 59,0.55564 c 55.9567,0.52698 59.52784,0.66964 69.23364,2.76561 52.4318,11.32268 91.5368,51.6357 100.8058,103.91992 1.9938,11.24679 2.0052,33.12536 0.023,44.34905 -8.2016,46.44101 -41.975,85.33924 -86.8195,99.99375 -18.5907,6.07515 -13.8504,5.90969 -168.74303,5.89005 -134.709475,-0.0171 -141.692355,-0.10534 -145.508565,-1.839 z"
       id="path1168"
       inkscape:connector-curvature="0" /></g><g
     id="g3778" /><g
     id="g3780" /><g
     id="g3782" /><g
     id="g3784" /><g
     id="g3786" /><g
     id="g3788" /><g
     id="g3790" /><g
     id="g3792" /><g
     id="g3794" /><g
     id="g3796" /><g
     id="g3798" /><g
     id="g3800" /><g
     id="g3802" /><g
     id="g3804" /><g
     id="g3806" /><g
     inkscape:groupmode="layer"
     id="layer1"
     inkscape:label="stroke" /></svg>