<?xml version="1.0" standalone="no"?>
<!DOCTYPE svg PUBLIC "-//W3C//DTD SVG 20010904//EN"
 "http://www.w3.org/TR/2001/REC-SVG-20010904/DTD/svg10.dtd">
<svg version="1.0" xmlns="http://www.w3.org/2000/svg"
 width="700.000000pt" height="700.000000pt" viewBox="0 0 700.000000 700.000000"
 preserveAspectRatio="xMidYMid meet">
<metadata>
Created by potrace 1.11, written by Peter Selinger 2001-2013
</metadata>
<g transform="translate(0.000000,700.000000) scale(0.100000,-0.100000)"
fill="#000000" stroke="none">
<path d="M3267 6074 c-1 -1 -27 -3 -57 -5 -141 -7 -293 -72 -410 -176 -41 -37
-345 -337 -675 -667 l-600 -600 -145 -2 c-213 -2 -313 -16 -369 -52 -78 -50
-123 -110 -135 -182 -15 -82 -19 -386 -20 -1387 -1 -1056 -1 -1063 -21 -1064
-11 0 -175 -1 -365 -3 -405 -4 -399 -2 -415 -88 -8 -36 -6 -682 1 -728 12 -71
13 -71 361 -76 170 -3 341 -6 381 -8 l73 -4 51 -56 c81 -91 119 -108 257 -115
181 -8 3710 -7 3956 2 121 4 231 9 245 11 14 2 47 7 74 11 97 14 317 91 451
158 469 235 835 673 973 1167 59 208 66 266 66 530 0 213 -14 327 -58 495 -29
111 -99 283 -156 390 -34 62 -138 226 -149 235 -3 3 -25 30 -48 60 -48 64
-204 219 -283 283 -196 157 -472 297 -695 353 -16 4 -34 8 -40 10 -5 1 -42 10
-82 18 -126 28 -174 29 -1238 41 -341 4 -621 8 -622 9 -3 2 7 14 150 169 149
161 195 239 233 387 23 93 23 239 0 330 -9 36 -37 108 -63 160 -39 79 -60 109
-132 180 -94 93 -173 142 -286 178 -60 19 -200 43 -208 36z"/>
</g>
</svg>
